<svg xmlns="http://www.w3.org/2000/svg" viewBox="0 0 11 8" width="22" height="16"><title>Claude Sessions — Invader · idle</title><path d="M2.00 0.30Q2.00 0.00 2.30 0.00L8.70 0.00Q9.00 0.00 9.00 0.30L9.00 1.70Q9.00 2.00 9.30 2.00L10.70 2.00Q11.00 2.00 11.00 2.30L11.00 3.70Q11.00 4.00 10.70 4.00L9.30 4.00Q9.00 4.00 9.00 4.30L9.00 7.70Q9.00 8.00 8.70 8.00L8.30 8.00Q8.00 8.00 8.00 7.70L8.00 6.30Q8.00 6.00 7.70 6.00L7.30 6.00Q7.00 6.00 7.00 6.30L7.00 7.70Q7.00 8.00 6.70 8.00L6.30 8.00Q6.00 8.00 6.00 7.70L6.00 6.30Q6.00 6.00 5.70 6.00L5.30 6.00Q5.00 6.00 5.00 6.30L5.00 7.70Q5.00 8.00 4.70 8.00L4.30 8.00Q4.00 8.00 4.00 7.70L4.00 6.30Q4.00 6.00 3.70 6.00L3.30 6.00Q3.00 6.00 3.00 6.30L3.00 7.70Q3.00 8.00 2.70 8.00L2.30 8.00Q2.00 8.00 2.00 7.70L2.00 4.30Q2.00 4.00 1.70 4.00L0.30 4.00Q0.00 4.00 0.00 3.70L0.00 2.30Q0.00 2.00 0.30 2.00L1.70 2.00Q2.00 2.00 2.00 1.70ZM4.00 1.30Q4.00 1.00 3.70 1.00L3.30 1.00Q3.00 1.00 3.00 1.30L3.00 1.70Q3.00 2.00 3.30 2.00L3.70 2.00Q4.00 2.00 4.00 1.70ZM8.00 1.30Q8.00 1.00 7.70 1.00L7.30 1.00Q7.00 1.00 7.00 1.30L7.00 1.70Q7.00 2.00 7.30 2.00L7.70 2.00Q8.00 2.00 8.00 1.70Z" fill="currentColor" fill-rule="evenodd"></path></svg>